<?xml version="1.0" encoding="UTF-8" standalone="no"?>
<svg
   version="1.0"
   width="33.75pt"
   height="33.738575pt"
   viewBox="0 0 33.75 33.738575"
   preserveAspectRatio="xMidYMid meet"
   id="svg13"
   sodipodi:docname="barrier.svg"
   inkscape:version="1.1 (c4e8f9e, 2021-05-24)"
   xmlns:inkscape="http://www.inkscape.org/namespaces/inkscape"
   xmlns:sodipodi="http://sodipodi.sourceforge.net/DTD/sodipodi-0.dtd"
   xmlns="http://www.w3.org/2000/svg"
   xmlns:svg="http://www.w3.org/2000/svg">
  <defs
     id="defs17" />
  <sodipodi:namedview
     id="namedview15"
     pagecolor="#ffffff"
     bordercolor="#666666"
     borderopacity="1.0"
     inkscape:pageshadow="2"
     inkscape:pageopacity="0.0"
     inkscape:pagecheckerboard="0"
     inkscape:document-units="pt"
     showgrid="false"
     inkscape:zoom="5.0051542"
     inkscape:cx="8.2914528"
     inkscape:cy="-13.585995"
     inkscape:window-width="1312"
     inkscape:window-height="764"
     inkscape:window-x="0"
     inkscape:window-y="25"
     inkscape:window-maximized="0"
     inkscape:current-layer="g11" />
  <g
     transform="matrix(0.1,0,0,-0.1,-14.628598,512.39172)"
     fill="#000000"
     stroke="none"
     id="g11">
    <path
       d="m 185.76309,5122.7979 c -3.78595,-1.6522 -4.2678,-3.8548 -4.2678,-19.9623 v -14.1112 h -14.11126 c -16.24516,0 -18.31022,-0.482 -19.96227,-4.4056 -1.51437,-3.5794 -1.51437,-72.2771 0,-75.8566 1.65205,-3.9236 3.71711,-4.4055 19.96227,-4.4055 h 14.11126 v -13.767 -13.7671 l -13.90476,-0.069 c -16.03864,0 -18.17254,-0.4818 -19.96226,-4.0613 -1.10136,-2.2028 -1.23904,-5.5069 -1.23904,-38.066 0,-39.0985 0,-39.3051 4.0613,-41.3701 1.65204,-0.8948 4.74963,-1.1014 16.58932,-1.1014 h 14.45544 v -31.5954 -31.5266 l -2.06506,-0.413 c -1.30787,-0.2754 -2.54691,-1.2391 -3.44177,-2.6846 -1.23904,-1.9962 -1.37671,-3.5106 -1.37671,-13.4229 v -11.2202 h -10.80716 c -12.66572,0 -15.00611,-0.6884 -16.58934,-4.8874 -0.82602,-2.1338 -0.75718,-2.8222 0.13768,-5.0248 2.06506,-4.8874 -11.83969,-4.5432 167.82073,-4.5432 152.8146,0 162.10738,0.069 164.37895,1.239 5.16265,2.5469 5.02499,9.9812 -0.27534,12.1838 -1.78973,0.7573 -5.30033,1.0326 -13.14757,1.0326 h -10.66948 v 11.2202 c 0,9.9123 -0.13768,11.4267 -1.37672,13.4229 -0.89485,1.4455 -2.13389,2.4092 -3.44177,2.6846 l -2.06506,0.413 v 31.5266 31.5954 h 14.45544 c 11.83969,0 14.93728,0.2066 16.58933,1.1014 4.06129,2.065 4.06129,2.2716 4.06129,41.3701 0,32.5591 -0.13767,35.8632 -1.23904,38.066 -1.78971,3.5795 -3.92362,4.0613 -19.89343,4.0613 l -13.97359,0.069 v 13.7671 13.767 h 14.11126 c 16.24516,0 18.31022,0.4819 19.96227,4.4055 1.51438,3.5795 1.51438,72.2772 0,75.8566 -1.65205,3.9236 -3.71711,4.4056 -19.96227,4.4056 h -14.11126 v 14.1112 c 0,16.2451 -0.48184,18.3101 -4.40546,19.9623 -3.51061,1.4455 -44.05467,1.5143 -47.56526,0.069 -4.13013,-1.721 -4.47431,-3.373 -4.47431,-19.687 v -14.4553 h -77.09566 -77.09565 v 14.4553 c 0,16.314 -0.34418,17.966 -4.4743,19.687 -3.44177,1.4455 -44.39884,1.3767 -47.70294,-0.069 z m 37.7218,-23.7483 v -10.3252 H 209.7178 195.95073 v 10.3252 10.3253 h 13.76707 13.76709 z m 210.63634,0 v -10.3252 h -13.76707 -13.76708 v 10.3252 10.3253 h 13.76708 13.76707 z m -221.09932,-26.7081 c -0.89486,-1.0325 -12.11503,-13.5606 -24.91842,-27.8783 -20.23761,-22.4404 -23.67938,-25.951 -25.33143,-25.951 h -1.92739 v 27.8783 27.8784 h 26.91464 26.91465 z m 33.041,-25.8821 -24.98726,-27.8784 h -18.79207 l -18.72323,-0.069 24.91843,27.8095 24.98725,27.8784 h 18.79207 l 18.72323,0.069 z m 79.5049,26.2263 c -0.68836,-0.8949 -11.90853,-13.4229 -24.91843,-27.8784 L 276.97,5018.5122 h -18.51672 -18.58557 l 2.34041,2.6846 c 1.23904,1.4455 12.45921,13.9735 24.98725,27.8783 l 22.71569,25.1938 h 18.44789 18.44788 z m 54.37996,-2.134 c -1.78972,-2.065 -13.07872,-14.593 -24.98725,-27.8783 l -21.68315,-24.0924 -18.37906,-0.069 c -10.18764,0 -18.44788,0.1377 -18.44788,0.3442 0,0.2065 11.15133,12.7346 24.78074,27.8783 l 24.84958,27.5342 h 18.58557 18.65439 z m 58.16592,2.4782 c -0.48185,-0.6884 -11.70202,-13.2164 -24.91842,-27.8784 l -23.95472,-26.6393 h -18.58556 -18.58556 l 3.02876,3.373 c 1.65205,1.8585 12.87222,14.3866 24.98726,27.8783 l 22.02733,24.5054 h 18.44788 c 17.6907,0 18.44789,-0.069 17.55303,-1.239 z m 31.11361,-26.6394 v -27.8783 h -30.35642 c -29.18621,0 -30.28758,0.069 -29.39272,1.239 0.48185,0.6883 11.70202,13.2164 24.91842,27.8784 l 23.95472,26.6393 h 5.438 5.438 z m -245.74241,-56.1008 v -13.7671 H 209.7178 195.95073 v 13.7671 13.767 h 13.76707 13.76709 z m 168.64675,0 v -13.7671 h -77.09566 -77.09565 v 13.7671 13.767 h 77.09565 77.09566 z m 41.98959,0 v -13.7671 h -13.76707 -13.76708 v 13.7671 13.767 h 13.76708 13.76707 z m -220.75514,-29.8058 c -0.68836,-0.8948 -11.90853,-13.4228 -24.91842,-27.8783 -20.65063,-22.9222 -23.95472,-26.2951 -25.60677,-26.2951 h -1.99623 v 27.8783 27.8784 h 26.91464 26.84581 z m 54.37996,-2.1339 c -1.78972,-2.0651 -13.07872,-14.5931 -24.98725,-27.8783 l -21.68315,-24.0924 -18.37905,-0.069 c -10.18764,0 -18.44789,0.1377 -18.44789,0.3442 0,0.2064 11.15134,12.7345 24.78075,27.8783 l 24.84958,27.5342 h 18.58556 18.65439 z m 58.16593,2.4781 c -0.48185,-0.6884 -11.70202,-13.2164 -24.91842,-27.8783 l -23.95472,-26.6393 h -18.58556 -18.58557 l 3.02877,3.3729 c 1.65204,1.8585 12.87221,14.3866 24.98725,27.8784 l 22.02733,24.5054 h 18.44789 c 17.6907,0 18.44788,-0.069 17.55303,-1.2391 z m 54.37997,-2.1339 c -1.65205,-1.8585 -12.87222,-14.3866 -24.98726,-27.8783 l -22.02732,-24.5054 h -18.4479 c -14.5931,0 -18.37904,0.2064 -17.96604,0.8948 0.34418,0.4131 11.49552,13.0099 24.91842,27.8783 l 24.2989,26.9836 h 18.58557 18.65439 z m 58.23476,2.547 c -0.34419,-0.4819 -11.49552,-13.0788 -24.91842,-27.8784 l -24.29891,-27.0523 h -18.58555 -18.6544 l 3.37294,3.717 c 1.78972,2.0651 13.07873,14.5932 24.98725,27.8784 l 21.68316,24.0924 18.44788,0.069 c 14.59311,0 18.37906,-0.2066 17.96605,-0.826 z m 30.70059,-27.0524 v -27.8783 H 438.87088 408.5833 l 1.23904,1.5832 c 0.68835,0.8949 11.90852,13.4229 24.91841,27.8783 l 23.67939,26.2952 h 5.36916 5.438 z m -245.74241,-73.998 v -31.6644 H 209.7178 195.95073 v 31.6644 31.6642 h 13.76707 13.76709 z m 168.64675,0 c 0,-30.9071 0,-31.6644 -1.30787,-31.6644 -0.75719,0 -2.27157,-0.7571 -3.3041,-1.652 l -1.92739,-1.652 -0.20651,-12.115 -0.2065,-12.1151 h -70.14329 -70.14327 l -0.20651,12.1151 -0.20651,12.115 -1.92739,1.652 c -1.03253,0.8949 -2.54691,1.652 -3.3041,1.652 -1.30787,0 -1.30787,0.7573 -1.30787,31.6644 v 31.6642 h 77.09565 77.09566 z m 41.98959,0 v -31.6644 h -13.76707 -13.76708 v 31.6644 31.6642 h 13.76708 13.76707 z m -203.06444,-52.315 v -6.8835 H 209.7178 188.37883 v 6.8835 6.8836 h 21.33897 21.33899 z m 210.63634,0 v -6.8835 h -21.33897 -21.33898 v 6.8835 6.8836 h 21.33898 21.33897 z"
       id="path9"
       style="fill:#ffffff;stroke-width:0.0688354" />
  </g>
</svg>
