<?xml version="1.0" encoding="UTF-8" standalone="no"?>
<svg
   version="1.0"
   width="33.749996pt"
   height="26.35154pt"
   viewBox="0 0 33.749996 26.35154"
   preserveAspectRatio="xMidYMid meet"
   id="svg33"
   sodipodi:docname="car-pedals.svg"
   inkscape:version="1.1 (c4e8f9e, 2021-05-24)"
   xmlns:inkscape="http://www.inkscape.org/namespaces/inkscape"
   xmlns:sodipodi="http://sodipodi.sourceforge.net/DTD/sodipodi-0.dtd"
   xmlns="http://www.w3.org/2000/svg"
   xmlns:svg="http://www.w3.org/2000/svg">
  <defs
     id="defs37" />
  <sodipodi:namedview
     id="namedview35"
     pagecolor="#ffffff"
     bordercolor="#666666"
     borderopacity="1.0"
     inkscape:pageshadow="2"
     inkscape:pageopacity="0.0"
     inkscape:pagecheckerboard="0"
     inkscape:document-units="pt"
     showgrid="false"
     inkscape:zoom="2.6320009"
     inkscape:cx="1.3297868"
     inkscape:cy="-2.2796345"
     inkscape:window-width="1312"
     inkscape:window-height="764"
     inkscape:window-x="0"
     inkscape:window-y="25"
     inkscape:window-maximized="0"
     inkscape:current-layer="svg33" />
  <g
     transform="matrix(0.00658665,0,0,-0.00658665,0.0131733,30.035124)"
     fill="#000000"
     stroke="none"
     id="g31"
     style="fill:#ffffff">
    <path
       d="m 24,4534 -26,-25 4,-177 3,-177 34,-63 c 38,-70 69,-100 145,-140 l 51,-27 483,-3 482,-3 V 3400 2880 H 704 c -361,0 -508,-3 -538,-12 -55,-16 -138,-99 -154,-154 -19,-65 -17,-1140 3,-1214 31,-119 70,-177 209,-316 112,-113 142,-137 206,-167 41,-19 99,-40 128,-46 74,-15 1850,-15 1924,0 29,6 87,27 128,46 64,30 94,54 206,167 113,112 137,142 167,206 19,41 40,99 46,128 16,77 15,1141 -1,1194 -6,22 -31,62 -55,88 -73,81 -63,80 -635,80 h -498 v 520 520 h 1080 1080 v -320 -320 h -136 c -78,0 -154,-5 -178,-12 -55,-16 -138,-99 -154,-154 -17,-60 -17,-2328 0,-2388 16,-55 99,-138 154,-154 59,-17 1049,-17 1108,0 55,16 138,99 154,154 17,59 17,2329 0,2386 -6,22 -31,62 -55,88 -61,68 -102,80 -275,80 h -138 v 319 319 l 203,4 c 196,3 203,4 253,30 76,40 107,70 145,140 l 34,63 3,177 4,177 -26,25 -25,26 H 2560 49 Z m 4934,-243 c -3,-118 -12,-141 -72,-185 l -27,-21 H 2560 261 l -27,21 c -60,44 -69,67 -72,185 l -4,109 H 2560 4962 Z M 1680,3400 v -520 h -160 -160 v 520 520 h 160 160 z m 2640,200 v -320 h -80 -80 v 320 320 h 80 80 z m 455,-505 25,-24 V 1920 769 l -25,-24 -24,-25 h -511 -511 l -24,25 -25,24 v 1151 1151 l 25,24 24,25 h 511 511 z m -1919,-400 25,-25 -3,-567 -3,-568 -28,-61 c -39,-85 -236,-281 -322,-321 l -60,-28 H 1520 575 l -60,28 c -86,40 -283,236 -322,321 l -28,61 -3,568 -3,567 25,25 25,25 h 1311 1311 z"
       id="path9"
       style="fill:#ffffff" />
    <path
       d="m 3865,2935 -25,-24 v -791 -791 l 25,-24 c 15,-16 36,-25 55,-25 19,0 40,9 55,25 l 25,24 v 791 791 l -25,24 c -15,16 -36,25 -55,25 -19,0 -40,-9 -55,-25 z"
       id="path11"
       style="fill:#ffffff" />
    <path
       d="m 4185,2935 -25,-24 v -951 -951 l 25,-24 c 32,-33 78,-33 110,0 l 25,24 v 951 951 l -25,24 c -15,16 -36,25 -55,25 -19,0 -40,-9 -55,-25 z"
       id="path13"
       style="fill:#ffffff" />
    <path
       d="m 4505,2935 -25,-24 v -791 -791 l 25,-24 c 15,-16 36,-25 55,-25 19,0 40,9 55,25 l 25,24 v 791 791 l -25,24 c -15,16 -36,25 -55,25 -19,0 -40,-9 -55,-25 z"
       id="path15"
       style="fill:#ffffff" />
    <path
       d="m 505,2535 -25,-24 v -471 -471 l 25,-24 c 32,-33 78,-33 110,0 l 25,24 v 471 471 l -25,24 c -15,16 -36,25 -55,25 -19,0 -40,-9 -55,-25 z"
       id="path17"
       style="fill:#ffffff" />
    <path
       d="m 825,2535 -25,-24 v -591 -591 l 25,-24 c 15,-16 36,-25 55,-25 19,0 40,9 55,25 l 25,24 v 591 591 l -25,24 c -15,16 -36,25 -55,25 -19,0 -40,-9 -55,-25 z"
       id="path19"
       style="fill:#ffffff" />
    <path
       d="m 1145,2535 -25,-24 v -591 -591 l 25,-24 c 15,-16 36,-25 55,-25 19,0 40,9 55,25 l 25,24 v 591 591 l -25,24 c -15,16 -36,25 -55,25 -19,0 -40,-9 -55,-25 z"
       id="path21"
       style="fill:#ffffff" />
    <path
       d="m 1465,2535 -25,-24 v -591 -591 l 25,-24 c 15,-16 36,-25 55,-25 19,0 40,9 55,25 l 25,24 v 591 591 l -25,24 c -15,16 -36,25 -55,25 -19,0 -40,-9 -55,-25 z"
       id="path23"
       style="fill:#ffffff" />
    <path
       d="m 1785,2535 -25,-24 v -591 -591 l 25,-24 c 15,-16 36,-25 55,-25 19,0 40,9 55,25 l 25,24 v 591 591 l -25,24 c -15,16 -36,25 -55,25 -19,0 -40,-9 -55,-25 z"
       id="path25"
       style="fill:#ffffff" />
    <path
       d="m 2105,2535 -25,-24 v -591 -591 l 25,-24 c 15,-16 36,-25 55,-25 19,0 40,9 55,25 l 25,24 v 591 591 l -25,24 c -15,16 -36,25 -55,25 -19,0 -40,-9 -55,-25 z"
       id="path27"
       style="fill:#ffffff" />
    <path
       d="m 2425,2535 -25,-24 v -471 -471 l 25,-24 c 32,-33 78,-33 110,0 l 25,24 v 471 471 l -25,24 c -15,16 -36,25 -55,25 -19,0 -40,-9 -55,-25 z"
       id="path29"
       style="fill:#ffffff" />
  </g>
</svg>
