<?xml version="1.0" encoding="UTF-8" standalone="no"?>
<!-- Created with Inkscape (http://www.inkscape.org/) -->

<svg
   width="35.963539mm"
   height="42.295017mm"
   viewBox="0 0 35.963539 42.295017"
   version="1.1"
   id="svg5"
   inkscape:version="1.1 (c4e8f9e, 2021-05-24)"
   sodipodi:docname="favicon.svg"
   xmlns:inkscape="http://www.inkscape.org/namespaces/inkscape"
   xmlns:sodipodi="http://sodipodi.sourceforge.net/DTD/sodipodi-0.dtd"
   xmlns="http://www.w3.org/2000/svg"
   xmlns:svg="http://www.w3.org/2000/svg">
  <sodipodi:namedview
     id="namedview7"
     pagecolor="#ffffff"
     bordercolor="#666666"
     borderopacity="1.0"
     inkscape:pageshadow="2"
     inkscape:pageopacity="0.0"
     inkscape:pagecheckerboard="0"
     inkscape:document-units="mm"
     showgrid="false"
     inkscape:zoom="0.48818743"
     inkscape:cx="203.81516"
     inkscape:cy="288.8235"
     inkscape:window-width="1312"
     inkscape:window-height="770"
     inkscape:window-x="0"
     inkscape:window-y="25"
     inkscape:window-maximized="0"
     inkscape:current-layer="g904" />
  <defs
     id="defs2" />
  <g
     inkscape:label="Слой 1"
     inkscape:groupmode="layer"
     id="layer1"
     transform="translate(-41.017119,-71.852886)">
    <g
       id="g904"
       transform="matrix(0.26458333,0,0,0.26458333,27.316994,-21.875763)">
      <polygon
         class="st0"
         points="181.56,354.25 61.41,381.78 98.11,390.69 150.52,378.76 144.07,402.01 138.99,407.76 121.77,413.24 116.76,432.13 125.41,430.68 137.85,465.18 167.28,458.46 150.9,421.34 169.92,400.79 "
         id="polygon826"
         transform="matrix(1.0473508,0,0,1.0399791,-2.451822,-14.162581)" />
      <polygon
         class="st0"
         points="97.35,397.35 121.62,391.74 118.59,408.23 88.36,429.81 "
         id="polygon828"
         transform="matrix(1.0473508,0,0,1.0399791,-2.451822,-14.162581)" />
      <polygon
         class="st1"
         points="116.64,415.06 102.74,471.75 51.78,507.96 67.63,450.05 "
         id="polygon830"
         transform="matrix(1.0473508,0,0,1.0399791,-2.451822,-14.162581)" />
    </g>
  </g>
  <style
     type="text/css"
     id="style824">
	.st0{fill:#5E9ED5;}
	.st1{fill:#DF3245;}
	.st2{fill:#3A89C7;}
	.st3{fill:#FFFFFF;}
</style>
</svg>
