<svg version="1.1" id="Слой_1" x="0" y="0" viewBox="0 0 505.21 174.59" xml:space="preserve" xmlns="http://www.w3.org/2000/svg">
  <style type="text/css" id="style824">
    .st0{fill:#5e9ed5}.st1{fill:#df3245}.st3{fill:#fff}
  </style>
  <path class="st0" id="polygon826" transform="translate(-51.78 -333.37)" d="m144.07 402.01-5.08 5.75-17.22 5.48-5.01 18.89 8.65-1.45 12.44 34.5 29.43-6.72-16.38-37.12 19.02-20.55 11.64-46.54-120.15 27.53 36.7 8.91 52.41-11.93z"/>
  <path class="st0" id="polygon828" transform="translate(-51.78 -333.37)" d="m118.59 408.23-30.23 21.58 8.99-32.46 24.27-5.61z"/>
  <path class="st1" id="polygon830" transform="translate(-51.78 -333.37)" d="m51.78 507.96 15.85-57.91 49.01-34.99-13.9 56.69z"/>
  <path class="st0" id="polygon832" transform="translate(-51.78 -333.37)" d="m431.25 414.78-12.69 80.5 29.99-6.76 12.92-80.61 25.65-5.78 11.04-26.02-88.63 20.18 3.4 22.66z"/>
  <path class="st0" id="polygon834" transform="translate(-51.78 -333.37)" d="m508.3 427 13.35-32.92 3.57 38.85-46.08 10.51-18.02 42.08 27.8-6.4 8.42-20.25 29.98-6.82 2.39 17.87 27.28-6.21-14.12-97.79-34.57 8.04-24.38 58.59z"/>
  <path class="st1" id="polygon838" transform="translate(-51.78 -333.37)" d="m542.25 361.4-3.97-28.03-133.43 30.36 3.83 27.31z"/>
  <g id="g866" transform="translate(-51.78 -333.37)">
    <path class="st3" d="m414.7 380.89-.11-10.65 6.35-1.41 1.63 1.32.07 7.28-1.61 2.04zm5.03-3.08.6-.76-.05-5.61-.47-.38-2.88.64.07 6.73z" id="path840"/>
    <path class="st3" d="m433.01 376.82-2.32.52-2.15-3.53-1.42.32.04 4-2.31.51-.11-10.65 5.79-1.29 1.63 1.32.03 3.03-1.61 2.05zm-3.74-4.93.6-.76-.03-1.97-.47-.39-2.32.52.03 3.1z" id="path842"/>
    <path class="st3" d="m439.35 375.41-5.32 1.18-.02-1.96 1.49-.33-.06-6.73-1.49.33-.02-1.96 5.32-1.18.02 1.96-1.51.34.07 6.73 1.51-.34z" id="path844"/>
    <path class="st3" d="m444.57 372.27.23-1.31 1.63-7.79 2.26-.5-2.57 11.24-3.17.7-2.92-10.02 2.4-.53 1.77 7.04.25 1.2z" id="path846"/>
    <path class="st3" d="m454.91 371.94-5.32 1.18-.02-1.96 1.49-.33-.06-6.73-1.49.33-.02-1.96 5.32-1.18.02 1.96-1.51.34.07 6.73 1.51-.34z" id="path848"/>
    <path class="st3" d="m464.52 359.13.11 10.65-2.96.66-2.52-5.66-.28-1.34-.12.03.08 7.6-2.01.45-.11-10.65 2.97-.66 2.52 5.66.28 1.33.12-.03-.08-7.59z" id="path850"/>
    <path class="st3" d="m472.92 360.15-.93-.79-2.34.52-.6.76.05 5.76.47.38 2.34-.52.59-.76v-1.67l-1.77.39-.02-1.88 4.09-.91.04 4.47-1.61 2.03-4.79 1.07-1.63-1.32-.07-7.43 1.61-2.05 4.78-1.06 1.37 1.16z" id="path852"/>
    <path class="st3" d="m485.44 357.29-.95-.77-2.09.47-.6.76.01 1.43.47.38 3.35-.75 1.63 1.33.03 2.98-1.61 2.04-5.03 1.12-1.37-1.15 1.5-1.84 1.05.82 2.54-.57.6-.76-.01-1.44-.47-.39-3.35.75-1.64-1.32-.03-2.97 1.61-2.05 4.59-1.02 1.31 1.13z" id="path854"/>
    <path class="st3" d="m495.24 363.05-4.79 1.07-1.63-1.32-.07-7.43 1.61-2.05 4.69-1.04 1.36 1.16-1.57 1.86-.93-.79-2.25.5-.6.76.05 5.76.47.38 2.34-.52 1.16-1.5 1.65 1.23z" id="path856"/>
    <path class="st3" d="m505.88 360.6-2.31.51-.05-4.46-3.19.71.05 4.46-2.31.51-.11-10.65 2.31-.51.04 4.09 3.19-.71-.03-4.09 2.31-.51z" id="path858"/>
    <path class="st3" d="m509.69 359.83-1.63-1.32-.07-7.43 1.61-2.05 4.78-1.06 1.64 1.33.07 7.43-1.61 2.04zm4.08-3.5-.06-5.76-.47-.38-2.34.52-.6.76.05 5.76.47.38 2.34-.52z" id="path860"/>
    <path class="st3" d="m519.75 357.59-1.63-1.32-.07-7.43 1.61-2.05 4.78-1.06 1.64 1.33.07 7.43-1.61 2.04zm4.08-3.5-.06-5.76-.47-.38-2.34.52-.6.76.05 5.76.47.38 2.34-.52z" id="path862"/>
    <path class="st3" d="m530.65 352.98 4.37-.97.03 2.1-6.69 1.49-.11-10.65 2.31-.51z" id="path864"/>
  </g>
  <path class="st0" id="polygon868" transform="translate(-51.78 -333.37)" d="m288 413.49-12.69 80.5 29.99-6.77 12.92-80.61 25.65-5.77 11.04-26.02-88.64 20.17 3.41 22.67z"/>
  <path class="st0" id="polygon870" transform="translate(-51.78 -333.37)" d="m364.08 425.7 13.35-32.91 3.56 38.84-46.07 10.52-18.03 42.08 27.8-6.41 8.42-20.24 29.98-6.82 2.39 17.86 27.29-6.21-14.13-97.79-34.56 8.05-24.39 58.58z"/>
  <path class="st0" id="polygon872" transform="translate(-51.78 -333.37)" d="m217.58 399.29 13.35-32.92 3.56 38.85-46.07 10.52-18.02 42.07 27.8-6.4 8.42-20.25 29.97-6.82 2.4 17.87 27.28-6.21-14.12-97.79-34.57 8.05-24.38 58.58z"/>
</svg>