<?xml version="1.0" encoding="utf-8"?>
<!-- Generator: Adobe Illustrator 26.5.0, SVG Export Plug-In . SVG Version: 6.00 Build 0)  -->
<svg version="1.1" id="Слой_1" xmlns="http://www.w3.org/2000/svg" xmlns:xlink="http://www.w3.org/1999/xlink" x="0px" y="0px"
	 viewBox="0 0 595.28 841.89" style="enable-background:new 0 0 595.28 841.89;" xml:space="preserve">
<style type="text/css">
	.st0{fill:#5E9ED5;}
	.st1{fill:#DF3245;}
	.st2{fill:#3A89C7;}
	.st3{fill:#FFFFFF;}
</style>
<polygon class="st0" points="98.11,390.69 150.52,378.76 144.07,402.01 138.99,407.76 121.77,413.24 116.76,432.13 125.41,430.68 
	137.85,465.18 167.28,458.46 150.9,421.34 169.92,400.79 181.56,354.25 61.41,381.78 "/>
<polygon class="st0" points="97.35,397.35 121.62,391.74 118.59,408.23 88.36,429.81 "/>
<polygon class="st1" points="116.64,415.06 102.74,471.75 51.78,507.96 67.63,450.05 "/>
<polygon class="st0" points="409.53,396.29 412.93,418.95 431.25,414.78 418.56,495.28 448.55,488.52 461.47,407.91 487.12,402.13 
	498.16,376.11 "/>
<polygon class="st0" points="508.3,373.96 483.92,432.55 508.3,427 521.65,394.08 525.22,432.93 479.14,443.44 461.12,485.52 
	488.92,479.12 497.34,458.87 527.32,452.05 529.71,469.92 556.99,463.71 542.87,365.92 "/>
<path class="st2" d="M406.69,361.41"/>
<polygon class="st1" points="404.85,363.73 408.68,391.04 542.25,361.4 538.28,333.37 "/>
<g>
	<path class="st3" d="M414.7,380.89l-0.11-10.65l6.35-1.41l1.63,1.32l0.07,7.28l-1.61,2.04L414.7,380.89z M419.73,377.81l0.6-0.76
		l-0.05-5.61l-0.47-0.38l-2.88,0.64l0.07,6.73L419.73,377.81z"/>
	<path class="st3" d="M433.01,376.82l-2.32,0.52l-2.15-3.53l-1.42,0.32l0.04,4l-2.31,0.51l-0.11-10.65l5.79-1.29l1.63,1.32
		l0.03,3.03l-1.61,2.05L433.01,376.82z M429.27,371.89l0.6-0.76l-0.03-1.97l-0.47-0.39l-2.32,0.52l0.03,3.1L429.27,371.89z"/>
	<path class="st3" d="M439.35,375.41l-5.32,1.18l-0.02-1.96l1.49-0.33l-0.06-6.73l-1.49,0.33l-0.02-1.96l5.32-1.18l0.02,1.96
		l-1.51,0.34l0.07,6.73l1.51-0.34L439.35,375.41z"/>
	<path class="st3" d="M444.57,372.27l0.23-1.31l1.63-7.79l2.26-0.5l-2.57,11.24l-3.17,0.7l-2.92-10.02l2.4-0.53l1.77,7.04l0.25,1.2
		L444.57,372.27z"/>
	<path class="st3" d="M454.91,371.94l-5.32,1.18l-0.02-1.96l1.49-0.33l-0.06-6.73l-1.49,0.33l-0.02-1.96l5.32-1.18l0.02,1.96
		l-1.51,0.34l0.07,6.73l1.51-0.34L454.91,371.94z"/>
	<path class="st3" d="M464.52,359.13l0.11,10.65l-2.96,0.66l-2.52-5.66l-0.28-1.34l-0.12,0.03l0.08,7.6l-2.01,0.45l-0.11-10.65
		l2.97-0.66l2.52,5.66l0.28,1.33l0.12-0.03l-0.08-7.59L464.52,359.13z"/>
	<path class="st3" d="M472.92,360.15l-0.93-0.79l-2.34,0.52l-0.6,0.76l0.05,5.76l0.47,0.38l2.34-0.52l0.59-0.76l0-1.67l-1.77,0.39
		l-0.02-1.88l4.09-0.91l0.04,4.47l-1.61,2.03l-4.79,1.07l-1.63-1.32l-0.07-7.43l1.61-2.05l4.78-1.06l1.37,1.16L472.92,360.15z"/>
	<path class="st3" d="M485.44,357.29l-0.95-0.77l-2.09,0.47l-0.6,0.76l0.01,1.43l0.47,0.38l3.35-0.75l1.63,1.33l0.03,2.98
		l-1.61,2.04l-5.03,1.12l-1.37-1.15l1.5-1.84l1.05,0.82l2.54-0.57l0.6-0.76l-0.01-1.44l-0.47-0.39l-3.35,0.75l-1.64-1.32l-0.03-2.97
		l1.61-2.05l4.59-1.02l1.31,1.13L485.44,357.29z"/>
	<path class="st3" d="M495.24,363.05l-4.79,1.07l-1.63-1.32l-0.07-7.43l1.61-2.05l4.69-1.04l1.36,1.16l-1.57,1.86l-0.93-0.79
		l-2.25,0.5l-0.6,0.76l0.05,5.76l0.47,0.38l2.34-0.52l1.16-1.5l1.65,1.23L495.24,363.05z"/>
	<path class="st3" d="M505.88,360.6l-2.31,0.51l-0.05-4.46l-3.19,0.71l0.05,4.46l-2.31,0.51l-0.11-10.65l2.31-0.51l0.04,4.09
		l3.19-0.71l-0.03-4.09l2.31-0.51L505.88,360.6z"/>
	<path class="st3" d="M509.69,359.83l-1.63-1.32l-0.07-7.43l1.61-2.05l4.78-1.06l1.64,1.33l0.07,7.43l-1.61,2.04L509.69,359.83z
		 M513.77,356.33l-0.06-5.76l-0.47-0.38l-2.34,0.52l-0.6,0.76l0.05,5.76l0.47,0.38l2.34-0.52L513.77,356.33z"/>
	<path class="st3" d="M519.75,357.59l-1.63-1.32l-0.07-7.43l1.61-2.05l4.78-1.06l1.64,1.33l0.07,7.43l-1.61,2.04L519.75,357.59z
		 M523.83,354.09l-0.06-5.76l-0.47-0.38l-2.34,0.52l-0.6,0.76l0.05,5.76l0.47,0.38l2.34-0.52L523.83,354.09z"/>
	<path class="st3" d="M530.65,352.98l4.37-0.97l0.03,2.1l-6.69,1.49l-0.11-10.65l2.31-0.51L530.65,352.98z"/>
</g>
<polygon class="st0" points="266.27,394.99 269.68,417.66 288,413.49 275.31,493.99 305.3,487.22 318.22,406.61 343.87,400.84 
	354.91,374.82 "/>
<polygon class="st0" points="364.08,372.67 339.69,431.25 364.08,425.7 377.43,392.79 380.99,431.63 334.92,442.15 316.89,484.23 
	344.69,477.82 353.11,457.58 383.09,450.76 385.48,468.62 412.77,462.41 398.64,364.62 "/>
<polygon class="st0" points="217.58,346.26 193.2,404.84 217.58,399.29 230.93,366.37 234.49,405.22 188.42,415.74 170.4,457.81 
	198.2,451.41 206.62,431.16 236.59,424.34 238.99,442.21 266.27,436 252.15,338.21 "/>
</svg>
