<svg xmlns="http://www.w3.org/2000/svg" xml:space="preserve" id="Слой_1" x="0" y="0" style="enable-background:new 0 0 157 57" version="1.1" height="57" width="157" viewBox="0 0 157 57"><style>.st0{fill:#46a6ff}.st1{fill:#dc1414}.st3{fill:#fff}</style><path d="m14.4 19.2 16.3-3.7-2 7.2-1.6 1.8-5.3 1.7-1.6 5.9 2.7-.5 3.9 10.7 9.1-2.1-5.1-11.5 5.9-6.4 3.6-14.4L3 16.4z" class="st0"/><path d="m14.2 21.3 7.5-1.8-.9 5.1-9.4 6.7z" class="st0"/><path d="m20.2 26.8-4.4 17.6L0 55.6l4.9-18z" class="st1"/><path d="m111.2 20.9 1 7.1 5.7-1.3-3.9 25 9.3-2.1 4-25.1 8-1.7 3.4-8.2zM141.9 14l-7.6 18.2 7.6-1.7 4.1-10.3 1.1 12.1-14.3 3.3-5.6 13 8.6-1.9 2.7-6.3 9.3-2.1.7 5.5 8.5-1.9-4.4-30.4z" class="st0"/><path d="m109.7 10.8 1.2 8.5 41.5-9.2-1.2-8.7z" class="st1"/><path d="M112.8 16.1v-3.3l2-.4.5.4v2.3l-.5.6-2 .4zm1.6-.9.2-.2v-1.7l-.2-.1-.9.2v2.1l.9-.3zM118.5 14.9l-.7.2-.7-1.1-.4.1v1.2l-.7.2v-3.3l1.8-.4.5.4v.9l-.5.6.7 1.2zm-1.2-1.6.2-.2v-.6l-.2-.1-.7.2v1l.7-.3zM120.5 14.4l-1.6.4v-.6l.5-.1V12l-.5.1v-.6l1.6-.4v.6l-.5.1v2.1l.5-.1v.6zM122.1 13.5l.1-.4.5-2.4.7-.2-.8 3.5-1 .2-.9-3.1.7-.2.6 2.2.1.4zM125.3 13.4l-1.6.4v-.6l.5-.1V11l-.5.1v-.6l1.6-.4v.6l-.5.1v2.1l.5-.1v.6zM128.3 9.4v3.3l-.9.2-.8-1.8-.1-.4v2.4l-.6.2V10l.9-.2.8 1.8.1.4V9.6l.6-.2zM130.9 9.7l-.3-.2-.7.2-.2.2v1.8l.2.1.7-.2.2-.2v-.5l-.6.1v-.6l1.3-.3v1.4l-.5.6-1.5.3-.5-.4V9.7l.5-.6 1.5-.3.4.4-.5.5zM134.8 8.8l-.3-.2-.7.2-.2.2v.4l.2.1 1.1-.2.5.4v.9l-.5.6-1.6.3-.4-.3.5-.6.3.2.8-.2.2-.2V10l-.2-.1-1.1.2-.5-.4v-.9l.5-.6 1.4-.3.4.3-.4.6zM137.8 10.6l-1.5.3-.5-.4V8.2l.5-.6 1.5-.3.4.4-.5.6-.3-.3-.7.2-.2.2v1.8l.2.1.7-.2.4-.5.5.4-.5.6zM141.1 9.8l-.7.2V8.6l-1 .2v1.4l-.7.2V7.1l.7-.2v1.3l1-.2V6.7l.7-.2v3.3zM142.3 9.6l-.5-.4V6.9l.5-.6 1.5-.3.5.4v2.3l-.5.6-1.5.3zm1.3-1.1V6.7l-.2-.1-.7.2-.2.2v1.8l.2.1.7-.2.2-.2zM145.4 8.9l-.5-.4V6.2l.5-.6 1.5-.3.5.4V8l-.5.6-1.5.3zm1.3-1.1V6l-.2-.1-.7.2-.2.2v1.8l.2.1.7-.2.2-.2zM148.8 7.5l1.4-.3v.7l-2.1.5V5.1l.7-.2v2.6z" class="st3"/><path d="m66.7 20.5 1 7.1 5.7-1.3-3.9 25 9.3-2.1 4-25.1 8-1.8 3.4-8zM97.1 13.6l-7.6 18.2 7.6-1.7 4.1-10.3 1.1 12.1L88 35.2l-5.6 13.1 8.6-2 2.6-6.3 9.4-2.1.7 5.5 8.5-1.9-4.4-30.4zM51.5 5.4l-7.6 18.2 7.6-1.8 4.2-10.2 1.1 12.1L42.5 27l-5.6 13 8.6-2 2.6-6.2 9.3-2.2.8 5.6 8.5-1.9-4.4-30.4z" class="st0"/></svg>