<?xml version="1.0" encoding="utf-8"?>
<!-- Generator: Adobe Illustrator 24.1.2, SVG Export Plug-In . SVG Version: 6.00 Build 0)  -->
<svg version="1.1" id="Слой_1" xmlns="http://www.w3.org/2000/svg" xmlns:xlink="http://www.w3.org/1999/xlink" x="0px" y="0px"
	 viewBox="0 0 505.2 174.6" style="enable-background:new 0 0 505.2 174.6;" xml:space="preserve">
<style type="text/css">
	.st0{fill:#46A5FF;}
	.st1{fill:#DF3245;}
	.st2{fill:#3A89C7;}
	.st3{fill:#FFFFFF;}
</style>
<polygon class="st0" points="46.3,57.3 98.7,45.4 92.3,68.6 87.2,74.4 70,79.8 65,98.7 73.6,97.3 86.1,131.8 115.5,125.1 99.1,87.9 
	118.1,67.4 129.8,20.8 9.6,48.4 "/>
<polygon class="st0" points="45.5,64 69.8,58.3 66.8,74.8 36.6,96.4 "/>
<polygon class="st1" points="64.8,81.7 50.9,138.4 0,174.6 15.8,116.6 "/>
<polygon class="st0" points="357.7,62.9 361.1,85.6 379.4,81.4 366.8,161.9 396.7,155.1 409.7,74.5 435.3,68.7 446.4,42.7 "/>
<polygon class="st0" points="456.5,40.6 432.1,99.1 456.5,93.6 469.9,60.7 473.4,99.5 427.3,110 409.3,152.1 437.1,145.7 
	445.5,125.5 475.5,118.6 477.9,136.5 505.2,130.3 491.1,32.5 "/>
<path class="st2" d="M354.9,28"/>
<polygon class="st1" points="353.1,30.3 356.9,57.6 490.4,28 486.5,0 "/>
<g>
	<path class="st3" d="M362.9,47.5l-0.1-10.6l6.4-1.4l1.6,1.3l0.1,7.3l-1.6,2L362.9,47.5z M367.9,44.4l0.6-0.8V38l-0.5-0.4l-2.9,0.6
		l0.1,6.7L367.9,44.4z"/>
	<path class="st3" d="M381.2,43.4l-2.3,0.5l-2.1-3.5l-1.4,0.3v4l-2.3,0.5L373,34.6l5.8-1.3l1.6,1.3v3l-1.6,2L381.2,43.4z
		 M377.5,38.5l0.6-0.8v-2l-0.5-0.4l-2.3,0.5v3.1L377.5,38.5z"/>
	<path class="st3" d="M387.6,42l-5.3,1.2v-2l1.5-0.3l-0.1-6.7l-1.5,0.3v-2l5.3-1.2v2l-1.5,0.3l0.1,6.7l1.5-0.3V42z"/>
	<path class="st3" d="M392.8,38.9l0.2-1.3l1.6-7.8l2.3-0.5l-2.6,11.2l-3.2,0.7l-2.9-10l2.4-0.5l1.8,7l0.2,1.2L392.8,38.9z"/>
	<path class="st3" d="M403.1,38.5l-5.3,1.2v-2l1.5-0.3l-0.1-6.7l-1.5,0.3v-2l5.3-1.2v2l-1.5,0.3l0.1,6.7l1.5-0.3V38.5z"/>
	<path class="st3" d="M412.7,25.7l0.1,10.6l-3,0.7l-2.5-5.7L407,30h-0.1l0.1,7.6l-2,0.5l-0.1-10.6l3-0.7l2.5,5.7l0.3,1.3h0.1
		l-0.1-7.6L412.7,25.7z"/>
	<path class="st3" d="M421.1,26.7l-0.9-0.8l-2.3,0.5l-0.6,0.8V33l0.5,0.4l2.3-0.5l0.6-0.8v-1.7l-1.8,0.4v-1.9L423,28v4.5l-1.6,2
		l-4.8,1.1l-1.6-1.3l-0.1-7.4l1.6-2l4.8-1.1l1.4,1.2L421.1,26.7z"/>
	<path class="st3" d="M433.6,23.9l-1-0.8l-2.1,0.5l-0.6,0.8v1.4l0.5,0.4l3.4-0.8l1.6,1.3v3l-1.6,2l-5,1.1l-1.4-1.1l1.5-1.8l1,0.8
		l2.5-0.6l0.6-0.8v-1.4l-0.5-0.4l-3.4,0.8l-1.6-1.3v-3l1.6-2l4.6-1l1.3,1.1L433.6,23.9z"/>
	<path class="st3" d="M443.4,29.6l-4.8,1.1l-1.6-1.3l-0.1-7.4l1.6-2l4.7-1l1.4,1.2l-1.6,1.9l-0.9-0.8l-2.2,0.5l-0.6,0.8v5.8l0.5,0.4
		l2.3-0.5l1.2-1.5l1.6,1.2L443.4,29.6z"/>
	<path class="st3" d="M454.1,27.2l-2.3,0.5v-4.5l-3.2,0.7v4.5l-2.3,0.5l-0.1-10.6l2.3-0.5v4.1l3.2-0.7v-4.1l2.3-0.5L454.1,27.2z"/>
	<path class="st3" d="M457.9,26.4l-1.6-1.3l-0.1-7.4l1.6-2l4.8-1.1l1.6,1.3l0.1,7.4l-1.6,2L457.9,26.4z M462,22.9l-0.1-5.8l-0.5-0.4
		l-2.3,0.5l-0.6,0.8v5.8l0.5,0.4l2.3-0.5L462,22.9z"/>
	<path class="st3" d="M468,24.2l-1.6-1.3l-0.1-7.4l1.6-2l4.8-1.1l1.6,1.3l0.1,7.4l-1.6,2L468,24.2z M472,20.7l-0.1-5.8l-0.5-0.4
		l-2.3,0.5l-0.6,0.8v5.8L469,22l2.3-0.5L472,20.7z"/>
	<path class="st3" d="M478.9,19.6l4.4-1v2.1l-6.7,1.5l-0.1-10.6l2.3-0.5L478.9,19.6z"/>
</g>
<polygon class="st0" points="214.5,61.6 217.9,84.3 236.2,80.1 223.5,160.6 253.5,153.8 266.4,73.2 292.1,67.4 303.1,41.4 "/>
<polygon class="st0" points="312.3,39.3 287.9,97.8 312.3,92.3 325.6,59.4 329.2,98.2 283.1,108.7 265.1,150.8 292.9,144.4 
	301.3,124.2 331.3,117.4 333.7,135.2 361,129 346.8,31.2 "/>
<polygon class="st0" points="165.8,12.9 141.4,71.4 165.8,65.9 179.1,33 182.7,71.8 136.6,82.3 118.6,124.4 146.4,118 154.8,97.8 
	184.8,90.9 187.2,108.8 214.5,102.6 200.3,4.8 "/>
</svg>
