<?xml version="1.0" encoding="UTF-8" standalone="no"?>
<svg
   version="1.0"
   width="32.430264pt"
   height="33.750004pt"
   viewBox="0 0 32.430264 33.750004"
   preserveAspectRatio="xMidYMid meet"
   id="svg23"
   sodipodi:docname="new-car.svg"
   inkscape:version="1.1 (c4e8f9e, 2021-05-24)"
   xmlns:inkscape="http://www.inkscape.org/namespaces/inkscape"
   xmlns:sodipodi="http://sodipodi.sourceforge.net/DTD/sodipodi-0.dtd"
   xmlns="http://www.w3.org/2000/svg"
   xmlns:svg="http://www.w3.org/2000/svg">
  <defs
     id="defs27" />
  <sodipodi:namedview
     id="namedview25"
     pagecolor="#ffffff"
     bordercolor="#666666"
     borderopacity="1.0"
     inkscape:pageshadow="2"
     inkscape:pageopacity="0.0"
     inkscape:pagecheckerboard="0"
     inkscape:document-units="pt"
     showgrid="false"
     inkscape:zoom="0.79394531"
     inkscape:cx="326.84871"
     inkscape:cy="341.33333"
     inkscape:window-width="1312"
     inkscape:window-height="764"
     inkscape:window-x="0"
     inkscape:window-y="25"
     inkscape:window-maximized="0"
     inkscape:current-layer="svg23" />
  <g
     transform="matrix(0.00659934,0,0,-0.00659934,-0.6929307,33.783002)"
     fill="#000000"
     stroke="none"
     id="g21"
     style="fill:#ffffff">
    <path
       d="m 3505,5110 c -146,-19 -327,-83 -455,-160 -305,-183 -513,-484 -575,-833 -25,-142 -17,-365 19,-502 14,-55 26,-103 26,-107 0,-4 -242,-9 -537,-10 l -538,-3 -67,-32 c -82,-38 -136,-80 -175,-136 -26,-36 -144,-275 -339,-684 l -54,-112 -52,55 c -32,34 -76,66 -117,87 -64,31 -71,32 -216,35 -148,4 -151,3 -204,-25 -32,-17 -65,-45 -85,-71 -31,-44 -31,-44 -31,-171 0,-122 1,-129 28,-169 15,-23 46,-54 69,-69 40,-27 48,-28 196,-33 l 154,-5 -21,-27 c -36,-46 -90,-170 -106,-243 -18,-86 -21,-716 -4,-810 19,-104 68,-222 135,-321 l 64,-96 V 447 C 620,235 621,223 644,174 672,113 726,59 789,28 833,6 845,5 1075,5 c 230,0 242,1 282,23 66,35 110,79 140,139 23,48 27,71 31,170 l 5,113 h 1022 1022 l 6,-107 c 3,-60 11,-125 18,-145 21,-64 79,-130 144,-163 l 59,-30 h 236 236 l 59,30 c 64,33 122,98 145,163 8,24 14,116 17,261 l 5,224 38,51 c 55,74 95,150 127,241 l 28,80 v 405 405 l -28,80 c -16,44 -46,108 -68,143 -21,35 -39,65 -39,68 0,2 65,4 144,4 138,0 146,1 197,28 34,17 65,44 84,71 28,40 30,49 33,154 3,106 2,115 -25,167 -18,36 -43,65 -71,85 l -44,30 h -167 -166 l -67,-33 c -43,-21 -83,-51 -113,-84 -25,-28 -47,-49 -49,-47 -5,6 -136,268 -136,273 0,2 33,22 74,45 291,160 503,433 588,759 28,105 31,133 32,277 1,223 -27,351 -124,551 -117,242 -344,466 -581,573 -204,92 -448,129 -664,101 z m 420,-184 c 560,-143 903,-714 761,-1268 -47,-184 -128,-328 -266,-471 -504,-526 -1361,-388 -1690,272 -139,278 -139,617 -1,906 146,306 420,516 758,580 117,22 311,14 438,-19 z M 2610,3331 c 0,-5 28,-52 62,-103 158,-235 425,-422 698,-488 191,-45 423,-45 588,0 37,10 67,18 68,17 4,-4 224,-460 224,-463 0,-2 -762,-4 -1694,-4 H 862 l 36,68 c 20,37 121,242 224,457 103,214 197,402 208,417 27,37 83,78 127,94 30,10 156,13 596,14 339,0 557,-4 557,-9 z M 576,2533 c 44,-23 104,-85 128,-131 13,-26 13,-31 0,-51 -15,-20 -22,-21 -211,-21 -240,0 -233,-3 -233,112 0,66 3,81 21,99 19,19 30,21 138,17 94,-3 124,-8 157,-25 z m 4262,11 c 20,-13 22,-24 22,-96 0,-122 8,-118 -231,-118 -192,0 -198,1 -213,22 -14,19 -13,24 2,51 29,49 82,107 115,124 53,27 78,31 182,32 76,1 106,-3 123,-15 z m -393,-461 c 109,-138 125,-208 125,-561 0,-368 -20,-485 -108,-635 -68,-118 -200,-220 -326,-253 -42,-11 -319,-14 -1577,-14 -1374,0 -1531,2 -1580,16 -93,28 -151,64 -230,143 -91,91 -151,203 -174,326 -21,107 -21,660 -1,756 18,84 65,178 118,235 l 41,44 H 2566 4400 Z M 945,485 c 41,-11 121,-18 249,-22 l 188,-6 -4,-96 c -3,-78 -8,-103 -26,-133 -38,-61 -65,-68 -279,-68 -211,0 -239,7 -280,69 -21,31 -23,45 -23,181 v 146 l 58,-27 c 31,-15 84,-35 117,-44 z M 4345,263 c -7,-39 -62,-90 -107,-98 -18,-4 -116,-5 -218,-3 -167,3 -188,5 -212,23 -51,38 -63,71 -63,175 v 95 l 200,6 c 209,5 269,17 365,68 l 35,19 3,-126 c 2,-70 0,-141 -3,-159 z"
       id="path9"
       style="fill:#ffffff" />
    <path
       d="m 3617,4788 c -24,-19 -37,-62 -37,-124 0,-41 -4,-54 -15,-54 -34,0 -129,-53 -178,-99 -196,-186 -147,-504 96,-626 38,-19 76,-35 83,-35 11,0 14,-43 14,-235 0,-129 -2,-235 -5,-235 -15,0 -63,31 -86,57 -37,39 -56,80 -64,138 -4,28 -16,60 -28,73 -26,28 -76,29 -108,3 -20,-16 -23,-27 -22,-78 5,-152 113,-299 258,-348 l 53,-18 4,-69 c 4,-82 27,-112 82,-112 59,0 76,25 76,109 v 72 l 46,13 c 110,31 215,133 256,247 28,82 22,205 -14,285 -46,100 -140,183 -241,213 l -42,12 -3,237 c -3,266 -5,260 69,204 51,-40 80,-93 90,-167 13,-91 74,-127 134,-79 26,20 27,24 23,93 -10,156 -121,296 -271,340 l -42,12 -3,71 c -3,63 -6,74 -29,92 -29,23 -71,26 -96,8 z m -37,-564 v -226 l -37,27 c -112,83 -147,204 -92,312 23,43 96,113 120,113 5,0 9,-95 9,-226 z m 240,-451 c 55,-47 79,-102 80,-176 0,-68 -16,-110 -60,-161 -28,-32 -77,-66 -95,-66 -3,0 -5,99 -5,220 0,252 0,251 80,183 z"
       id="path11"
       style="fill:#ffffff" />
    <path
       d="m 890,1821 c -19,-10 -48,-37 -65,-60 -29,-41 -30,-47 -33,-170 -5,-152 6,-198 52,-239 53,-46 103,-52 447,-52 330,0 340,1 384,50 27,30 25,124 -5,202 -25,68 -92,141 -153,168 -57,25 -490,120 -547,120 -25,0 -61,-8 -80,-19 z m 330,-176 c 118,-26 228,-54 245,-64 34,-20 75,-75 75,-103 0,-17 -13,-18 -297,-16 l -298,3 -3,97 c -3,110 7,143 41,134 12,-3 119,-26 237,-51 z"
       id="path13"
       style="fill:#ffffff" />
    <path
       d="m 3860,1788 c -244,-54 -289,-71 -346,-126 -80,-77 -116,-234 -68,-299 42,-57 49,-58 409,-58 h 330 l 49,25 c 82,41 90,60 95,211 4,160 -1,190 -42,236 -69,78 -119,79 -427,11 z m 310,-118 c 6,-11 10,-60 8,-113 l -3,-92 -292,-3 c -274,-2 -293,-1 -293,15 0,31 38,83 73,99 29,14 438,111 479,113 10,1 22,-8 28,-19 z"
       id="path15"
       style="fill:#ffffff" />
    <path
       d="m 1990,1367 c -49,-25 -60,-88 -23,-129 15,-17 56,-18 585,-18 352,0 576,4 588,10 48,26 43,110 -10,137 -36,18 -1104,18 -1140,0 z"
       id="path17"
       style="fill:#ffffff" />
    <path
       d="m 1974,1026 c -36,-30 -38,-91 -4,-118 21,-17 60,-18 589,-18 609,1 590,-1 610,53 13,33 1,69 -31,91 -20,14 -85,16 -580,16 h -557 z"
       id="path19"
       style="fill:#ffffff" />
  </g>
</svg>
