<?xml version="1.0" encoding="UTF-8" standalone="no"?>
<svg
   version="1.0"
   width="26.389214pt"
   height="33.749992pt"
   viewBox="0 0 26.389214 33.749992"
   preserveAspectRatio="xMidYMid meet"
   id="svg21"
   sodipodi:docname="racer-2.svg"
   inkscape:version="1.1 (c4e8f9e, 2021-05-24)"
   xmlns:inkscape="http://www.inkscape.org/namespaces/inkscape"
   xmlns:sodipodi="http://sodipodi.sourceforge.net/DTD/sodipodi-0.dtd"
   xmlns="http://www.w3.org/2000/svg"
   xmlns:svg="http://www.w3.org/2000/svg">
  <defs
     id="defs25" />
  <sodipodi:namedview
     id="namedview23"
     pagecolor="#ffffff"
     bordercolor="#666666"
     borderopacity="1.0"
     inkscape:pageshadow="2"
     inkscape:pageopacity="0.0"
     inkscape:pagecheckerboard="0"
     inkscape:document-units="pt"
     showgrid="false"
     inkscape:zoom="0.79394531"
     inkscape:cx="266.39114"
     inkscape:cy="341.33333"
     inkscape:window-width="1312"
     inkscape:window-height="764"
     inkscape:window-x="0"
     inkscape:window-y="25"
     inkscape:window-maximized="0"
     inkscape:current-layer="g19" />
  <g
     transform="matrix(0.1,0,0,-0.1,-55.9,511.8285)"
     fill="#000000"
     stroke="none"
     id="g19">
    <path
       d="m 679.73624,5117.7387 c -28.61798,-4.0223 -50.3782,-19.0566 -61.32425,-42.3994 -6.79183,-14.5068 -8.50627,-29.673 -5.53896,-49.521 4.2861,-28.8817 13.05613,-50.7738 26.90354,-66.9951 l 3.69264,-4.2861 v -8.3084 -8.3744 l -21.43052,-5.3412 c -11.73733,-2.9013 -23.40872,-6.0665 -25.8485,-6.9896 -6.79182,-2.5717 -13.05613,-6.594 -18.85885,-12.133 -8.04469,-7.649 -12.6605,-15.2321 -16.08938,-26.2441 l -1.84632,-5.8028 -0.19782,-48.6637 -0.19782,-48.5978 1.6485,-1.6485 c 2.17602,-2.1761 5.20927,-2.1761 7.31935,0 1.6485,1.5825 1.6485,1.6485 1.6485,14.4408 v 12.9243 l 10.22071,7.649 c 6.33024,4.7477 10.35259,8.2425 10.55041,9.0998 0.13188,0.7253 0.39564,11.3417 0.52752,23.4746 0.46158,35.4758 2.50572,41.806 14.63869,46.0921 2.37384,0.8572 4.74768,2.176 5.2752,2.9014 0.79128,1.121 0.9891,3.6267 0.9891,10.7482 v 9.3635 l 18.00164,4.418 17.93569,4.418 5.34115,-3.1652 5.34114,-3.231 -4.9455,-3.6267 c -14.04523,-10.2867 -23.14496,-21.8262 -25.25504,-32.1788 -0.6594,-3.1651 -0.6594,-5.5389 -0.0659,-11.4735 1.45068,-13.5177 8.83597,-46.4878 17.54005,-78.0071 3.89047,-14.1112 4.61581,-15.4959 8.44033,-15.4959 2.24196,0 5.14332,2.5716 5.14332,4.5498 0,0.7254 -1.78038,7.9128 -4.02234,16.0235 -7.97875,29.4092 -14.70463,58.6866 -16.48501,72.0065 -0.9891,7.5831 -0.59346,11.012 1.78038,15.8916 2.6376,5.6049 14.30899,17.1444 23.01308,22.9471 6.52806,4.2861 6.72588,4.352 9.09973,3.6267 l 2.43978,-0.7253 v -65.5445 -65.5444 l 1.6485,-1.5825 c 2.11008,-2.1761 5.14332,-2.1761 7.2534,0 l 1.64851,1.5825 v 64.3575 64.2916 h 5.2752 5.2752 v -64.2916 -64.3575 l 1.64851,-1.5825 c 2.11008,-2.1761 5.14332,-2.1761 7.2534,0 l 1.6485,1.5825 v 65.5444 65.5445 l 2.50573,0.7253 c 2.37384,0.7913 2.57166,0.7253 9.03378,-3.6267 4.15423,-2.7695 9.29755,-7.1215 13.84742,-11.7373 10.68228,-10.6164 12.46267,-15.1662 10.94604,-27.1014 -1.78038,-13.3858 -8.83596,-44.1798 -16.88065,-73.2594 -1.9782,-7.3193 -3.6267,-13.9793 -3.6267,-14.7046 0,-2.0442 2.90136,-4.6158 5.14332,-4.6158 3.89046,0 4.54987,1.2528 8.77003,16.8147 10.88011,39.8278 17.80381,72.4022 17.73787,83.7438 -0.0659,4.0883 -2.24196,10.6823 -5.2752,15.8257 -2.83542,4.8136 -14.50681,16.6169 -20.83706,21.1008 l -4.68174,3.297 5.34114,3.231 5.34115,3.1652 18.00163,-4.418 17.9357,-4.418 v -9.3635 c 0,-7.1215 0.19782,-9.6272 0.9891,-10.7482 0.52752,-0.7254 2.90136,-2.0442 5.2752,-2.9014 12.13297,-4.2861 14.11117,-10.5504 14.63869,-46.0921 0.13188,-12.1329 0.39564,-22.7493 0.52752,-23.4746 0.19782,-0.8573 4.22017,-4.3521 10.55041,-9.0998 l 10.22071,-7.649 v -12.9243 c 0,-12.7923 0,-12.8583 1.6485,-14.4408 2.11009,-2.1761 5.14333,-2.1761 7.31935,0 l 1.6485,1.6485 -0.19782,48.5978 -0.19782,48.6637 -1.84632,5.8028 c -3.42888,11.012 -8.04469,18.5951 -16.08937,26.2441 -5.80273,5.539 -12.06703,9.5613 -18.85886,12.133 -2.43978,0.9231 -14.11117,4.0883 -25.8485,6.9896 l -21.43052,5.3412 v 8.3744 8.3744 l 3.69264,4.2861 c 14.6387,16.8806 24.13406,42.0038 27.69483,73.7869 1.3188,11.2098 0.6594,20.7711 -2.11009,31.0577 -6.13242,23.0131 -23.27683,41.1466 -46.94931,49.6529 -11.01199,3.9564 -29.67303,5.9346 -41.01472,4.352 z m 23.07902,-10.8141 c 24.46376,-3.6927 44.1139,-18.2654 52.48828,-38.8387 l 1.84633,-4.5499 -2.24197,-1.8463 c -1.25286,-1.055 -4.08828,-2.9673 -6.2643,-4.2202 l -3.9564,-2.3738 h -53.74115 -53.74114 l -3.95641,2.3738 c -2.17602,1.2529 -5.01144,3.1652 -6.2643,4.2202 l -2.24196,1.8463 1.84632,4.5499 c 4.15422,10.2207 12.92425,21.0349 21.82615,27.0354 15.56186,10.4185 35.14605,14.7046 54.40055,11.8033 z m -75.50136,-58.0932 c 7.2534,-4.5499 3.16512,-4.2861 63.56621,-4.2861 60.59891,0 56.57657,-0.2638 64.15967,4.5499 l 4.15423,2.6376 0.59346,-3.7586 c 0.92316,-6.1325 -1.51662,-26.3101 -4.41799,-37.388 -0.85722,-3.0333 -1.05504,-3.297 -2.76948,-3.1652 -0.9891,0.066 -1.91226,0.2638 -2.04414,0.3297 -0.13188,0.1319 0.52752,3.8246 1.38474,8.1107 0.92316,4.352 1.84632,10.6163 2.04414,13.9793 0.46158,5.8686 0.39564,6.0664 -1.25286,7.7149 -3.69264,3.6927 -9.03379,1.121 -9.03379,-4.352 0,-4.418 -1.78038,-15.2981 -3.69264,-22.3537 l -1.71444,-6.3962 -7.18747,-3.3629 c -15.23215,-7.1215 -23.27684,-8.9679 -40.15749,-8.9679 -16.81471,0 -24.92534,1.8464 -40.09155,8.9679 l -7.12153,3.297 -1.78038,6.3962 c -1.91226,6.9237 -3.75858,17.8697 -3.75858,22.4196 0,5.473 -5.34115,8.0447 -9.03379,4.352 -1.6485,-1.6485 -1.71444,-1.8463 -1.25286,-7.7149 0.19782,-3.363 1.12098,-9.6273 2.04414,-13.9793 0.85722,-4.2861 1.51662,-7.9788 1.38474,-8.1107 -0.13188,-0.066 -1.05504,-0.2637 -2.04414,-0.3297 -1.71444,-0.1318 -1.91226,0.1319 -2.76948,3.1652 -1.38474,5.407 -3.29701,16.6169 -4.15423,24.7934 -0.92316,8.3744 -0.46158,16.7488 0.85722,15.9575 0.46158,-0.2637 2.30791,-1.3847 4.08829,-2.5057 z m 7.97874,-52.7521 c 1.84633,-0.5275 6.39619,-2.4397 10.22071,-4.2201 8.96785,-4.2202 16.88066,-6.9897 25.1891,-8.77 5.67085,-1.187 8.83597,-1.4507 20.2436,-1.4507 11.53951,0 14.50681,0.2637 20.44142,1.5166 8.90191,1.9123 14.96839,4.0223 24.39782,8.4403 7.51716,3.4948 14.30899,5.9346 14.96839,5.2752 0.9891,-1.055 -5.01144,-14.243 -9.89101,-21.6943 -9.95695,-15.364 -21.95804,-24.6615 -37.05831,-29.0136 -7.31934,-2.0441 -18.33133,-2.0441 -25.58474,0 -14.70463,4.1542 -27.10136,13.6496 -36.53079,27.9586 -5.86867,8.9679 -12.13297,22.9471 -10.28665,22.9471 0.3297,0 2.11008,-0.4615 3.89046,-0.9891 z m 29.27739,-60.8626 c 0,-5.473 0.59346,-5.4071 -6.72589,-0.9891 l -3.82452,2.2419 v 4.5499 4.5499 l 5.2752,-2.7695 5.27521,-2.7695 z m 61.98365,0.5275 c -0.79128,-0.5935 -3.16512,-2.0441 -5.34114,-3.2311 l -3.89047,-2.11 v 4.9455 c 0,2.7694 0.26376,5.0114 0.59346,5.0114 0.3297,0 2.63761,1.121 5.14333,2.5717 l 4.48392,2.5716 0.19782,-4.352 c 0.19782,-3.8245 0,-4.4839 -1.18692,-5.4071 z m -41.67411,-1.4507 c 5.80272,-0.7253 12.79237,-0.3297 20.11171,1.1869 l 1.78038,0.3957 v -4.8796 -4.9455 l -2.43978,-0.7253 c -5.73678,-1.7804 -13.18801,-2.3739 -18.79291,-1.5826 -3.03325,0.4616 -6.59401,1.121 -7.91281,1.5826 l -2.50572,0.7253 v 4.9455 4.8796 l 1.84632,-0.3957 c 0.9891,-0.1978 4.54986,-0.7253 7.91281,-1.1869 z m -83.61199,-23.5406 c 0,-4.8795 -0.0659,-5.2093 -1.51663,-5.6049 -3.03324,-0.7253 -9.5613,-5.6049 -11.67139,-8.7041 -4.48392,-6.4621 -6.2643,-13.5836 -7.38528,-30.0686 l -0.79128,-11.7374 h -5.20927 -5.20926 l 0.3297,12.7265 c 0.3297,14.0452 0.9891,17.4081 4.87956,25.1891 3.09919,6.1983 6.92371,11.0779 12.06703,15.2981 3.75859,3.0991 12.33079,8.1106 13.91335,8.1106 0.32971,0 0.59347,-2.3739 0.59347,-5.2093 z m 185.29155,2.9014 c 7.25341,-3.6927 14.83651,-10.7483 18.9248,-17.8038 5.20926,-8.9019 6.79182,-16.0235 6.79182,-30.4643 v -10.7483 h -5.14332 -5.14333 l -0.79128,11.7374 c -1.12098,16.485 -2.76948,23.2109 -7.12152,29.607 -2.37385,3.4949 -8.77003,8.3744 -11.86921,9.1657 -1.51662,0.3956 -1.58256,0.6594 -1.58256,5.6709 0,5.9346 -0.13188,5.8686 5.9346,2.8354 z m -206.39237,-76.1608 v -6.5281 l -5.27521,-4.0223 -5.2752,-4.0223 v 10.6163 10.5504 h 5.2752 5.27521 z m 232.10899,-3.9564 v -10.6163 l -5.2752,4.0223 -5.27521,4.0223 v 6.5281 6.594 h 5.27521 5.2752 z"
       id="path9"
       style="fill:#ffffff;stroke-width:0.0659401" />
    <path
       d="m 672.15313,5094.8575 c -3.09918,-0.7912 -10.8801,-4.2201 -14.77057,-6.4621 -2.24196,-1.3188 -6.19836,-4.352 -8.70408,-6.7259 -3.89047,-3.6926 -4.54987,-4.6158 -4.54987,-6.594 0,-2.7035 2.43978,-5.473 4.87957,-5.473 1.05504,0 3.23106,1.3847 6.06648,3.8905 5.93461,5.2092 10.02289,7.5831 17.40818,10.2207 6.52806,2.3079 7.9128,3.4948 7.9128,6.4621 0,3.7586 -3.6267,5.8027 -8.24251,4.6817 z"
       id="path11"
       style="fill:#ffffff;stroke-width:0.0659401" />
    <path
       d="m 682.04414,4969.0439 c -1.05504,-0.9891 -1.6485,-2.3738 -1.6485,-3.6267 0,-1.2528 0.59346,-2.6376 1.6485,-3.6267 1.51662,-1.5825 2.04414,-1.6485 8.90191,-1.6485 6.85777,0 7.38529,0.066 8.90191,1.6485 1.05504,0.9891 1.6485,2.3739 1.6485,3.6267 0,1.2529 -0.59346,2.6376 -1.6485,3.6267 -1.51662,1.5826 -2.04414,1.6485 -8.90191,1.6485 -6.85777,0 -7.38529,-0.066 -8.90191,-1.6485 z"
       id="path13"
       style="fill:#ffffff;stroke-width:0.0659401" />
    <path
       d="m 613.46649,4842.439 -1.64851,-1.5825 v -28.4202 -28.4202 l 1.64851,-1.5825 c 0.9891,-1.0551 2.37384,-1.6485 3.6267,-1.6485 1.25286,0 2.6376,0.5934 3.6267,1.6485 l 1.6485,1.5825 v 28.4202 28.4202 l -1.6485,1.5825 c -0.9891,1.0551 -2.37384,1.6485 -3.6267,1.6485 -1.25286,0 -2.6376,-0.5934 -3.6267,-1.6485 z"
       id="path15"
       style="fill:#ffffff;stroke-width:0.0659401" />
    <path
       d="m 761.17221,4842.439 -1.6485,-1.5825 v -28.4202 -28.4202 l 1.6485,-1.5825 c 2.11008,-2.1761 5.14332,-2.1761 7.25341,0 l 1.6485,1.5825 v 28.4202 28.4202 l -1.6485,1.5825 c -0.98911,1.0551 -2.37385,1.6485 -3.62671,1.6485 -1.25286,0 -2.6376,-0.5934 -3.6267,-1.6485 z"
       id="path17"
       style="fill:#ffffff;stroke-width:0.0659401" />
  </g>
</svg>
