<svg viewBox="0 0 1920 70" fill="none" xmlns="http://www.w3.org/2000/svg">
<path d="M-168.656 0.517578H-128.861L-120.17 11.5039L-125.688 37.3828L-139.066 48.418H-159.086L-162.357 45.3906L-167.582 70H-183.354L-168.656 0.517578ZM-140.482 32.5L-136.869 15.5078L-139.359 12.2852H-155.375L-160.551 36.6016H-145.463L-140.482 32.5ZM-70.9512 70H-88.2363L-89.1152 55.5957H-108.158L-115.043 70H-130.131L-95.6582 0.517578H-77.3477L-70.9512 70ZM-90.7266 16.0938L-93.7539 24.2969L-103.031 43.1934H-88.9199L-90.043 24.2969L-89.9453 16.0938H-90.7266ZM-41.8008 14.1895H-60.6973L-57.7676 0.517578H-4.20312L-7.08398 14.1895H-25.9805L-37.7969 70H-53.5684L-41.8008 14.1895ZM37.8379 70H20.5527L19.6738 55.5957H0.630859L-6.25391 70H-21.3418L13.1309 0.517578H31.4414L37.8379 70ZM18.0625 16.0938L15.0352 24.2969L5.75781 43.1934H19.8691L18.7461 24.2969L18.8438 16.0938H18.0625ZM66.9883 14.1895H48.0918L51.0215 0.517578H104.586L101.705 14.1895H82.8086L70.9922 70H55.2207L66.9883 14.1895ZM146.627 70H129.342L128.463 55.5957H109.42L102.535 70H87.4473L121.92 0.517578H140.23L146.627 70ZM126.852 16.0938L123.824 24.2969L114.547 43.1934H128.658L127.535 24.2969L127.633 16.0938H126.852ZM175.777 14.1895H156.881L159.811 0.517578H213.375L210.494 14.1895H191.598L179.781 70H164.01L175.777 14.1895ZM255.416 70H238.131L237.252 55.5957H218.209L211.324 70H196.236L230.709 0.517578H249.02L255.416 70ZM235.641 16.0938L232.613 24.2969L223.336 43.1934H237.447L236.324 24.2969L236.422 16.0938H235.641ZM284.566 14.1895H265.67L268.6 0.517578H322.164L319.283 14.1895H300.387L288.57 70H272.799L284.566 14.1895ZM364.205 70H346.92L346.041 55.5957H326.998L320.113 70H305.025L339.498 0.517578H357.809L364.205 70ZM344.43 16.0938L341.402 24.2969L332.125 43.1934H346.236L345.113 24.2969L345.211 16.0938H344.43ZM393.355 14.1895H374.459L377.389 0.517578H430.953L428.072 14.1895H409.176L397.359 70H381.588L393.355 14.1895ZM472.994 70H455.709L454.83 55.5957H435.787L428.902 70H413.814L448.287 0.517578H466.598L472.994 70ZM453.219 16.0938L450.191 24.2969L440.914 43.1934H455.025L453.902 24.2969L454 16.0938H453.219ZM502.145 14.1895H483.248L486.178 0.517578H539.742L536.861 14.1895H517.965L506.148 70H490.377L502.145 14.1895ZM581.783 70H564.498L563.619 55.5957H544.576L537.691 70H522.604L557.076 0.517578H575.387L581.783 70ZM562.008 16.0938L558.98 24.2969L549.703 43.1934H563.814L562.691 24.2969L562.789 16.0938H562.008ZM610.934 14.1895H592.037L594.967 0.517578H648.531L645.65 14.1895H626.754L614.938 70H599.166L610.934 14.1895ZM690.572 70H673.287L672.408 55.5957H653.365L646.48 70H631.393L665.865 0.517578H684.176L690.572 70ZM670.797 16.0938L667.77 24.2969L658.492 43.1934H672.604L671.48 24.2969L671.578 16.0938H670.797ZM719.723 14.1895H700.826L703.756 0.517578H757.32L754.439 14.1895H735.543L723.727 70H707.955L719.723 14.1895ZM799.361 70H782.076L781.197 55.5957H762.154L755.27 70H740.182L774.654 0.517578H792.965L799.361 70ZM779.586 16.0938L776.559 24.2969L767.281 43.1934H781.393L780.27 24.2969L780.367 16.0938H779.586ZM828.512 14.1895H809.615L812.545 0.517578H866.109L863.229 14.1895H844.332L832.516 70H816.744L828.512 14.1895ZM908.15 70H890.865L889.986 55.5957H870.943L864.059 70H848.971L883.443 0.517578H901.754L908.15 70ZM888.375 16.0938L885.348 24.2969L876.07 43.1934H890.182L889.059 24.2969L889.156 16.0938H888.375ZM937.301 14.1895H918.404L921.334 0.517578H974.898L972.018 14.1895H953.121L941.305 70H925.533L937.301 14.1895ZM1016.94 70H999.654L998.775 55.5957H979.732L972.848 70H957.76L992.232 0.517578H1010.54L1016.94 70ZM997.164 16.0938L994.137 24.2969L984.859 43.1934H998.971L997.848 24.2969L997.945 16.0938H997.164ZM1046.09 14.1895H1027.19L1030.12 0.517578H1083.69L1080.81 14.1895H1061.91L1050.09 70H1034.32L1046.09 14.1895ZM1125.73 70H1108.44L1107.56 55.5957H1088.52L1081.64 70H1066.55L1101.02 0.517578H1119.33L1125.73 70ZM1105.95 16.0938L1102.93 24.2969L1093.65 43.1934H1107.76L1106.64 24.2969L1106.73 16.0938H1105.95ZM1154.88 14.1895H1135.98L1138.91 0.517578H1192.48L1189.6 14.1895H1170.7L1158.88 70H1143.11L1154.88 14.1895ZM1234.52 70H1217.23L1216.35 55.5957H1197.31L1190.43 70H1175.34L1209.81 0.517578H1228.12L1234.52 70ZM1214.74 16.0938L1211.71 24.2969L1202.44 43.1934H1216.55L1215.43 24.2969L1215.52 16.0938H1214.74ZM1263.67 14.1895H1244.77L1247.7 0.517578H1301.27L1298.38 14.1895H1279.49L1267.67 70H1251.9L1263.67 14.1895ZM1343.31 70H1326.02L1325.14 55.5957H1306.1L1299.21 70H1284.13L1318.6 0.517578H1336.91L1343.31 70ZM1323.53 16.0938L1320.5 24.2969L1311.23 43.1934H1325.34L1324.21 24.2969L1324.31 16.0938H1323.53ZM1402.49 70H1385.2L1384.32 55.5957H1365.28L1358.39 70H1343.31L1377.78 0.517578H1396.09L1402.49 70ZM1382.71 16.0938L1379.68 24.2969L1370.41 43.1934H1384.52L1383.39 24.2969L1383.49 16.0938H1382.71ZM1431.64 14.1895H1412.74L1415.67 0.517578H1469.23L1466.35 14.1895H1447.46L1435.64 70H1419.87L1431.64 14.1895ZM1511.28 70H1493.99L1493.11 55.5957H1474.07L1467.18 70H1452.1L1486.57 0.517578H1504.88L1511.28 70ZM1491.5 16.0938L1488.47 24.2969L1479.2 43.1934H1493.31L1492.18 24.2969L1492.28 16.0938H1491.5ZM1540.43 14.1895H1521.53L1524.46 0.517578H1578.02L1575.14 14.1895H1556.25L1544.43 70H1528.66L1540.43 14.1895ZM1620.06 70H1602.78L1601.9 55.5957H1582.86L1575.97 70H1560.88L1595.36 0.517578H1613.67L1620.06 70ZM1600.29 16.0938L1597.26 24.2969L1587.98 43.1934H1602.1L1600.97 24.2969L1601.07 16.0938H1600.29ZM1649.21 14.1895H1630.32L1633.25 0.517578H1686.81L1683.93 14.1895H1665.04L1653.22 70H1637.45L1649.21 14.1895ZM1728.85 70H1711.57L1710.69 55.5957H1691.65L1684.76 70H1669.67L1704.15 0.517578H1722.46L1728.85 70ZM1709.08 16.0938L1706.05 24.2969L1696.77 43.1934H1710.88L1709.76 24.2969L1709.86 16.0938H1709.08ZM1758 14.1895H1739.11L1742.04 0.517578H1795.6L1792.72 14.1895H1773.82L1762.01 70H1746.24L1758 14.1895ZM1837.64 70H1820.36L1819.48 55.5957H1800.44L1793.55 70H1778.46L1812.94 0.517578H1831.25L1837.64 70ZM1817.87 16.0938L1814.84 24.2969L1805.56 43.1934H1819.67L1818.55 24.2969L1818.65 16.0938H1817.87ZM1866.79 14.1895H1847.9L1850.83 0.517578H1904.39L1901.51 14.1895H1882.61L1870.8 70H1855.03L1866.79 14.1895ZM1946.43 70H1929.15L1928.27 55.5957H1909.22L1902.34 70H1887.25L1921.72 0.517578H1940.04L1946.43 70ZM1926.66 16.0938L1923.63 24.2969L1914.35 43.1934H1928.46L1927.34 24.2969L1927.44 16.0938H1926.66ZM1975.58 14.1895H1956.69L1959.62 0.517578H2013.18L2010.3 14.1895H1991.4L1979.59 70H1963.81L1975.58 14.1895ZM2055.22 70H2037.94L2037.06 55.5957H2018.01L2011.13 70H1996.04L2030.51 0.517578H2048.82L2055.22 70ZM2035.45 16.0938L2032.42 24.2969L2023.14 43.1934H2037.25L2036.13 24.2969L2036.23 16.0938H2035.45ZM2084.37 14.1895H2065.47L2068.4 0.517578H2121.97L2119.09 14.1895H2100.19L2088.38 70H2072.6L2084.37 14.1895ZM2164.01 70H2146.72L2145.85 55.5957H2126.8L2119.92 70H2104.83L2139.3 0.517578H2157.61L2164.01 70ZM2144.23 16.0938L2141.21 24.2969L2131.93 43.1934H2146.04L2144.92 24.2969L2145.02 16.0938H2144.23ZM2193.16 14.1895H2174.26L2177.19 0.517578H2230.76L2227.88 14.1895H2208.98L2197.16 70H2181.39L2193.16 14.1895ZM2272.8 70H2255.51L2254.63 55.5957H2235.59L2228.71 70H2213.62L2248.09 0.517578H2266.4L2272.8 70ZM2253.02 16.0938L2250 24.2969L2240.72 43.1934H2254.83L2253.71 24.2969L2253.8 16.0938H2253.02ZM2301.95 14.1895H2283.05L2285.98 0.517578H2339.55L2336.67 14.1895H2317.77L2305.95 70H2290.18L2301.95 14.1895ZM2381.59 70H2364.3L2363.42 55.5957H2344.38L2337.5 70H2322.41L2356.88 0.517578H2375.19L2381.59 70ZM2361.81 16.0938L2358.79 24.2969L2349.51 43.1934H2363.62L2362.5 24.2969L2362.59 16.0938H2361.81ZM2410.74 14.1895H2391.84L2394.77 0.517578H2448.34L2445.46 14.1895H2426.56L2414.74 70H2398.97L2410.74 14.1895ZM2490.38 70H2473.09L2472.21 55.5957H2453.17L2446.29 70H2431.2L2465.67 0.517578H2483.98L2490.38 70ZM2470.6 16.0938L2467.57 24.2969L2458.3 43.1934H2472.41L2471.29 24.2969L2471.38 16.0938H2470.6Z" fill="#F4F4F4"/>
</svg>
