<svg width="972" height="100" viewBox="0 0 972 100" fill="none" xmlns="http://www.w3.org/2000/svg"><path fill-rule="evenodd" clip-rule="evenodd" d="M23.5 84.482 38.198 15h39.795l8.691 10.986-5.518 25.88L67.788 62.9h-20.02l-3.271-3.027-5.225 24.61H23.5Zm112.403 0h-17.285l-.879-14.404H98.696l-6.885 14.404H76.723L111.196 15h18.31l6.397 69.482Zm-19.776-53.906L113.1 38.78l-9.277 18.897h14.111l-1.123-18.897.098-8.203h-.782Zm48.926-1.904h-18.896L149.086 15h53.565l-2.881 13.672h-18.897l-11.816 55.81h-15.771l11.767-55.81Zm79.639 55.81h-17.285l-.879-14.404h-19.043L200.6 84.482h-15.088L219.985 15h18.311l6.396 69.482Zm-19.775-53.906-3.028 8.203-9.277 18.897h14.111L225.6 38.779l.098-8.203h-.781Zm48.926-1.904h-18.897L257.876 15h53.564l-2.88 13.672h-18.897l-11.816 55.81h-15.772l11.768-55.81Zm79.639 55.81h-17.286l-.878-14.404h-19.044l-6.885 14.404h-15.087L328.774 15h18.31l6.398 69.482Zm-19.776-53.906-3.028 8.203-9.277 18.897h14.112l-1.124-18.897.098-8.203h-.781Zm179.392 53.906h-17.285l-.879-14.404H475.89l-6.884 14.404h-15.089L488.39 15h18.312l6.396 69.482Zm-19.775-53.906-3.028 8.203-9.278 18.897h14.112l-1.123-18.897.098-8.203h-.781Zm48.925-1.904h-18.896L526.282 15h53.565l-2.881 13.672H558.07l-11.817 55.81h-15.772l11.767-55.81Zm79.64 55.81h-17.285l-.879-14.404h-19.043l-6.885 14.404h-15.088L597.181 15h18.311l6.396 69.482Zm-19.775-53.906-3.028 8.203-9.277 18.897h14.111l-1.123-18.897.098-8.203h-.781Zm48.926-1.904h-18.897L635.072 15h53.564l-2.881 13.672h-18.896l-11.817 55.81h-15.771l11.768-55.81Zm79.638 55.81h-17.285l-.879-14.404H693.47l-6.885 14.404h-15.087L705.97 15h18.311l6.396 69.482Zm-19.775-53.906-3.028 8.203-9.277 18.897h14.111l-1.123-18.897.098-8.203h-.781Zm48.926-1.904h-18.897L743.861 15h53.564l-2.881 13.672h-18.896l-11.816 55.81H748.06l11.768-55.81Zm79.638 55.81h-17.285l-.879-14.404h-19.043l-6.885 14.404h-15.087L814.759 15h18.311l6.396 69.482Zm-19.775-53.906-3.027 8.203-9.278 18.897h14.112l-1.124-18.897.098-8.203h-.781Zm48.926-1.904H849.72L852.65 15h53.564l-2.881 13.672h-18.896l-11.816 55.81h-15.772l11.768-55.81Zm79.637 55.81h-17.285l-.879-14.404h-19.042l-6.884 14.404h-15.088L923.548 15h18.31l6.396 69.482Zm-19.775-53.906-3.026 8.203-9.278 18.897h14.111l-1.123-18.897.097-8.203h-.781ZM455.682 15h-39.795l-14.698 69.482h15.772l5.225-24.609 3.271 3.027h20.02l13.378-11.035 5.518-25.879L455.682 15ZM51.5 26.5l-5 24.5h15l5-4L70 30l-2.5-3.5h-16Zm373 24.5 5-24.5h16L448 30l-3.5 17-5 4h-15Z" fill="#F4F4F4"/></svg>